Coordinates
version=1
nRows=8
nColumns=46
inDegrees=yes

Units are S.I. units (second, meters, Newtons, ...)
Angles are in degrees.

endheader
time	pelvis_tilt	pelvis_list	pelvis_rotation	pelvis_tx	pelvis_ty	pelvis_tz	bb_angle	bb_tx	bb_ty	bb_tz	hip_flexion_r	hip_adduction_r	hip_rotation_r	knee_angle_r	knee_angle_r_beta	ankle_angle_r	subtalar_angle_r	mtp_angle_r	crank_angle_r	hip_flexion_l	hip_adduction_l	hip_rotation_l	knee_angle_l	knee_angle_l_beta	ankle_angle_l	subtalar_angle_l	mtp_angle_l	crank_angle_l	lumbar_extension	lumbar_bending	lumbar_rotation	arm_flex_r	arm_add_r	arm_rot_r	elbow_flex_r	pro_sup_r	wrist_flex_r	wrist_dev_r	arm_flex_l	arm_add_l	arm_rot_l	elbow_flex_l	pro_sup_l	wrist_flex_l	wrist_dev_l
      7.50000000	    -12.64233524	     -6.87114880	     -2.50665450	      0.18364382	      1.06342127	     -0.33287095	      0.00000000	      0.50000000	      0.00000000	      0.25000000	     92.67236920	     -0.57090876	      1.16161669	    113.98143343	      1.98935130	     -2.84999573	    -13.58283886	      0.00000000	      0.00000000	     39.44666339	    -14.19651406	     -6.08208940	     36.77027457	      0.64176236	    -23.68673547	      1.59566162	      0.00000000	      0.00000000	    -69.97654970	      0.07534605	      7.48365761	     89.33011712	    -20.55238404	     27.24821172	     65.76329436	     38.08277908	      0.00000000	      0.00000000	     87.85782481	    -17.08394632	     27.32012184	     73.26144624	     37.29980394	      0.00000000	      0.00000000
      7.50500000	    -12.67545582	     -6.80720554	     -2.45660385	      0.18330822	      1.06480754	     -0.33323251	      0.00000000	      0.50000000	      0.00000000	      0.25000000	     92.52994757	     -0.79528787	      1.01344367	    112.82824356	      1.96922434	     -1.62623342	    -13.66268931	      0.00000000	      0.00000000	     39.43853516	    -14.14028612	     -6.00407427	     37.84308066	      0.66048636	    -23.61401783	      1.12807114	      0.00000000	      0.00000000	    -70.21617657	      0.23572775	      7.38283930	     89.36888708	    -20.38923367	     27.05907186	     65.97947236	     38.07341878	      0.00000000	      0.00000000	     87.94977092	    -17.32037071	     27.19882648	     73.37636167	     37.33253241	      0.00000000	      0.00000000
      7.51000000	    -12.92638942	     -6.88042825	     -2.63140161	      0.18319796	      1.06626476	     -0.33389474	      0.00000000	      0.50000000	      0.00000000	      0.25000000	     92.28489443	     -0.84988946	      0.72486563	    111.37685723	      1.94389287	     -0.11257245	    -13.42252591	      0.00000000	      0.00000000	     39.68739676	    -14.22583473	     -5.78986264	     39.07403639	      0.68197059	    -23.39297773	      0.29445513	      0.00000000	      0.00000000	    -70.31100437	      0.36973321	      7.44864776	     89.41982570	    -20.07893412	     26.84254186	     66.33967272	     38.08102907	      0.00000000	      0.00000000	     87.96892091	    -17.65414839	     27.03877270	     73.51901096	     37.36885975	      0.00000000	      0.00000000
      7.51500000	    -13.12401455	     -6.93009009	     -2.65079473	      0.18294944	      1.06752445	     -0.33434714	      0.00000000	      0.50000000	      0.00000000	      0.25000000	     91.82604958	     -0.98428633	      0.50660954	    109.84654611	      1.91718390	      1.67980833	    -12.98726414	      0.00000000	      0.00000000	     40.12713847	    -14.25162602	     -5.47499855	     40.62560181	      0.70905051	    -23.20956089	     -0.50611201	      0.00000000	      0.00000000	    -70.42641031	      0.61636993	      7.47747113	     89.44701468	    -19.76451214	     26.58077688	     66.74706829	     38.08777143	      0.00000000	      0.00000000	     87.99192215	    -18.01894577	     26.87633648	     73.71760067	     37.41541796	      0.00000000	      0.00000000
      7.52000000	    -13.48195883	     -7.13084242	     -2.53773598	      0.18262912	      1.06844360	     -0.33513353	      0.00000000	      0.50000000	      0.00000000	      0.25000000	     91.27831920	     -1.23125633	      0.25026067	    108.09050067	      1.88653513	      4.02234958	    -11.49731183	      0.00000000	      0.00000000	     40.94933033	    -14.24777256	     -4.67376023	     42.39512496	      0.73993452	    -22.91532375	     -1.31613772	      0.00000000	      0.00000000	    -70.51099959	      1.23413858	      7.35778418	     89.44819486	    -18.52353133	     25.25390466	     67.76864320	     37.65502340	      0.00000000	      0.00000000	     87.68506419	    -19.35237249	     26.57296068	     75.52828517	     37.96239623	      0.00000000	      0.00000000
      7.52500000	    -13.63190467	     -7.08629487	     -2.40338139	      0.18230832	      1.06925984	     -0.33550474	      0.00000000	      0.50000000	      0.00000000	      0.25000000	     90.43636005	     -1.44717536	      0.11417701	    106.27576864	      1.85486208	      6.08752081	    -11.00938976	      0.00000000	      0.00000000	     41.67376558	    -14.09177017	     -4.16940265	     44.43278980	      0.77549848	    -22.60961470	     -2.19922238	      0.00000000	      0.00000000	    -70.58490652	      1.51333472	      7.24807616	     89.47634554	    -18.28779430	     25.17081523	     67.99623907	     37.58633365	      0.00000000	      0.00000000	     87.75637763	    -19.66191519	     26.50815540	     75.57399280	     38.01358307	      0.00000000	      0.00000000
      7.53000000	    -13.78622226	     -7.00806708	     -2.41516649	      0.18199863	      1.07001466	     -0.33606938	      0.00000000	      0.50000000	      0.00000000	      0.25000000	     89.45223656	     -1.52051975	      0.01369319	    104.22515984	      1.81907220	      8.17193364	    -10.25412955	      0.00000000	      0.00000000	     42.44532242	    -13.93170748	     -3.66332473	     46.60386020	      0.81339080	    -22.24198569	     -3.15821069	      0.00000000	      0.00000000	    -70.65233508	      1.67953278	      7.13679693	     89.49294071	    -18.05020951	     25.03442711	     68.32893723	     37.52962259	      0.00000000	      0.00000000	     87.77835549	    -20.00490909	     26.43127624	     75.72563590	     38.08087652	      0.00000000	      0.00000000
      7.53500000	    -13.88135498	     -6.69861513	     -2.41563483	      0.18189224	      1.07087216	     -0.33650188	      0.00000000	      0.50000000	      0.00000000	      0.25000000	     88.30746223	     -1.56937234	      0.08144418	    102.07126859	      1.78147971	     10.17468966	    -10.43365329	      0.00000000	      0.00000000	     43.14489601	    -13.56441875	     -3.29249782	     48.79760785	      0.85167892	    -21.84667248	     -3.93771502	      0.00000000	      0.00000000	    -70.76105614	      1.66843373	      6.84948506	     89.50043969	    -17.94494425	     24.94126828	     68.54650581	     37.50542513	      0.00000000	      0.00000000	     87.84202956	    -20.16450023	     26.38286499	     75.82342229	     38.11743507	      0.00000000	      0.00000000
